<svg width="512" height="512" viewBox="0 0 512 512" xmlns="http://www.w3.org/2000/svg">
  <defs>
    <!-- 笔尖金属渐变 -->
    <linearGradient id="nibGradient" x1="0%" y1="0%" x2="100%" y2="100%">
      <stop offset="0%" style="stop-color:#e0f2fe;stop-opacity:1" />
      <stop offset="100%" style="stop-color:#bae6fd;stop-opacity:1" />
    </linearGradient>
    
    <!-- 笔身/墨水渐变 -->
    <linearGradient id="inkGradient" x1="0%" y1="0%" x2="100%" y2="100%">
      <stop offset="0%" style="stop-color:#22d3ee;stop-opacity:1" /> <!-- Cyan -->
      <stop offset="50%" style="stop-color:#3b82f6;stop-opacity:1" /> <!-- Blue -->
      <stop offset="100%" style="stop-color:#8b5cf6;stop-opacity:1" /> <!-- Purple -->
    </linearGradient>

    <!-- 阴影 -->
    <filter id="dropShadow" x="-20%" y="-20%" width="140%" height="140%">
      <feGaussianBlur in="SourceAlpha" stdDeviation="8"/>
      <feOffset dx="0" dy="8" result="offsetblur"/>
      <feComponentTransfer>
        <feFuncA type="linear" slope="0.3"/>
      </feComponentTransfer>
      <feMerge>
        <feMergeNode/>
        <feMergeNode in="SourceGraphic"/>
      </feMerge>
    </filter>
  </defs>

  <!-- 1. 笔身 (主体) -->
  <!-- 一个倾斜的圆柱体形状 -->
  <g transform="translate(256, 256) rotate(45)" filter="url(#dropShadow)">
    <!-- 笔身下半部分 -->
    <path d="M -60 -160 L 60 -160 L 60 40 L -60 40 Z" fill="url(#inkGradient)" />
    <!-- 笔尖 (三角形) -->
    <path d="M -60 40 L 60 40 L 0 140 Z" fill="url(#nibGradient)" />
    <!-- 笔尖中间的开缝 -->
    <path d="M 0 40 L 0 110" stroke="#3b82f6" stroke-width="4" stroke-linecap="round" />
    
    <!-- 笔身上的装饰线条 -->
    <rect x="-60" y="-140" width="120" height="20" fill="#ffffff" opacity="0.2" />
  </g>

  <!-- 2. 绘制出的线条 (S形曲线) -->
  <!-- 线条从笔尖下方延伸出来 -->
  <path d="M 256 360 Q 150 360 100 280 T 50 150" 
        fill="none" 
        stroke="url(#inkGradient)" 
        stroke-width="24" 
        stroke-linecap="round" 
        stroke-dasharray="20 10"
        filter="url(#dropShadow)"
        opacity="0.9"/>

  <!-- 3. AI 像素粒子 (漂浮在笔尖周围) -->
  <g fill="url(#inkGradient)" filter="url(#dropShadow)">
    <rect x="360" y="180" width="24" height="24" rx="4" opacity="0.8" />
    <rect x="400" y="140" width="16" height="16" rx="3" opacity="0.6" />
    <rect x="420" y="200" width="20" height="20" rx="4" opacity="0.7" />
    <rect x="350" y="120" width="12" height="12" rx="2" opacity="0.5" />
  </g>
</svg>
